<svg width="16" height="16" viewBox="0 0 16 16" fill="none" xmlns="http://www.w3.org/2000/svg">
<path d="M12.8214 15.9999C12.1243 15.9999 11.145 15.7477 9.67865 14.9285C7.89549 13.9285 6.51625 13.0053 4.74274 11.2365C3.0328 9.52758 2.20068 8.42119 1.03608 6.30198C-0.279591 3.9092 -0.0553132 2.65496 0.195393 2.1189C0.493954 1.47821 0.934654 1.09501 1.50428 0.714663C1.82782 0.502683 2.17021 0.320968 2.5271 0.171824C2.56281 0.156467 2.59603 0.141825 2.62567 0.128611C2.80245 0.0489709 3.0703 -0.0713822 3.40957 0.0571849C3.63599 0.142182 3.83813 0.316105 4.15455 0.628594C4.80345 1.26857 5.69021 2.69388 6.01734 3.39386C6.23698 3.86563 6.38233 4.17705 6.38269 4.52632C6.38269 4.93524 6.17698 5.25058 5.92734 5.59093C5.88056 5.65486 5.83413 5.71592 5.78913 5.77521C5.51736 6.13234 5.45772 6.23555 5.497 6.41983C5.57664 6.79017 6.17055 7.89264 7.14659 8.86653C8.12263 9.84043 9.19331 10.3968 9.56508 10.4761C9.75722 10.5172 9.86257 10.4551 10.2311 10.1736C10.284 10.1333 10.3383 10.0915 10.3951 10.0497C10.7758 9.7665 11.0765 9.56615 11.4757 9.56615H11.4779C11.8254 9.56615 12.1229 9.71686 12.6157 9.96543C13.2585 10.2897 14.7267 11.165 15.3706 11.8146C15.6838 12.1304 15.8584 12.3318 15.9438 12.5578C16.0724 12.8982 15.9513 13.165 15.8724 13.3435C15.8592 13.3732 15.8445 13.4057 15.8292 13.4417C15.6788 13.798 15.496 14.1397 15.2831 14.4624C14.9035 15.0303 14.5188 15.4699 13.8767 15.7688C13.547 15.9248 13.1861 16.0038 12.8214 15.9999Z" fill="white"/>
</svg>
